<svg width="1212" height="1165" viewBox="0 0 1212 1165" fill="none" xmlns="http://www.w3.org/2000/svg">
<path d="M726.256 388.333C539.262 388.333 387.84 539.251 387.84 725.624C387.84 903.839 526.669 1050.05 702.646 1061.97C572.316 1027.46 475.986 908.859 475.986 767.981C475.986 599.807 612.611 463.635 781.347 463.635C893.103 463.635 991.007 523.563 1044.21 612.984C1045.78 621.142 1048.62 628.986 1052.71 636.203C1013.36 493.442 882.085 388.333 726.256 388.333Z" fill="#252525"/>
<path d="M484.8 29.2772C144.706 -85.9707 -5.84869 175.216 0.173483 189.935C6.51261 205.594 28.6996 202.462 85.7517 205.594C128.541 207.786 176.401 233.153 197.954 245.68C266.734 145.778 367.209 69.0503 484.8 29.2772Z" fill="url(#paint0_linear_1040_101)"/>
<path d="M1212 593.034C1212 591.792 1212 590.24 1211.68 588.687C1211.05 579.683 1208.83 570.989 1205.66 563.227C1193.94 528.142 1171.14 483.121 1177.16 459.524C1199.33 372.587 1175.57 285.339 1118.55 214.548C1013.7 83.832 851.196 0 668.735 0C603.796 0 541.392 10.5566 483.423 30.1174C365.583 69.5495 265.483 145.619 196.427 244.665C133.706 334.707 96.96 443.378 96.96 560.433C96.96 566.332 96.96 571.921 97.2767 577.82L96.96 577.51C96.96 901.66 364.95 1164.33 695.66 1164.33C695.66 1164.33 745.077 1168.37 861.966 1156.57C985.508 1144.15 993.11 1117.76 1047.28 1117.76C1104.3 1117.76 1132.81 1136.39 1142.31 1123.97C1151.81 1111.55 1110.63 1037.03 1107.47 987.355C1104.3 937.677 1110.63 850.74 1101.13 853.845C1091.63 856.95 1034.61 919.048 996.595 950.096C958.582 981.145 933.24 990.46 930.072 999.775C926.905 1009.09 930.072 1027.72 920.569 1033.93C911.066 1040.14 854.047 1064.98 781.189 1064.98C753.63 1064.98 727.338 1061.56 701.996 1054.73C524.92 1042.62 385.223 898.245 385.223 721.887C385.223 626.877 425.77 541.182 490.708 480.327C490.708 480.327 530.939 537.146 540.442 599.244C549.945 661.342 549.945 713.193 551.529 719.714C553.113 726.544 562.616 723.439 568.951 717.23C575.287 711.02 667.151 664.447 689.325 589.929C711.182 516.343 720.685 475.98 717.835 388.111C720.369 388.111 722.903 388.111 725.754 388.111C882.556 388.111 1014.65 492.125 1054.25 633.708C1068.5 659.479 1096.06 676.866 1128.06 676.866C1174.3 676.866 1212 639.918 1212 594.586C1212 593.966 1211.68 593.655 1212 593.034Z" fill="url(#paint1_radial_1040_101)"/>
<defs>
<linearGradient id="paint0_linear_1040_101" x1="82.2823" y1="-18.5447" x2="357.198" y2="209.125" gradientUnits="userSpaceOnUse">
<stop offset="0.2091" stop-color="#252525"/>
<stop offset="1" stop-color="#EE0258"/>
</linearGradient>
<radialGradient id="paint1_radial_1040_101" cx="0" cy="0" r="1" gradientUnits="userSpaceOnUse" gradientTransform="translate(654.333 582.491) scale(576.193 564.763)">
<stop offset="0.0104921" stop-color="#252525"/>
<stop offset="1" stop-color="#EE0258"/>
</radialGradient>
</defs>
</svg>
