<svg xmlns="http://www.w3.org/2000/svg" xmlns:xlink="http://www.w3.org/1999/xlink" viewBox="0,0,256,256" width="100px" height="100px"><g fill="#ee0258" fill-rule="nonzero" stroke="none" stroke-width="1" stroke-linecap="butt" stroke-linejoin="miter" stroke-miterlimit="10" stroke-dasharray="" stroke-dashoffset="0" font-family="none" font-weight="none" font-size="none" text-anchor="none" style="mix-blend-mode: normal"><g transform="scale(5.12,5.12)"><path d="M13,5c-0.36064,-0.0051 -0.69608,0.18438 -0.87789,0.49587c-0.18181,0.3115 -0.18181,0.69676 0,1.00825c0.18181,0.3115 0.51725,0.50097 0.87789,0.49587h24c0.36064,0.0051 0.69608,-0.18438 0.87789,-0.49587c0.18181,-0.3115 0.18181,-0.69676 0,-1.00825c-0.18181,-0.3115 -0.51725,-0.50097 -0.87789,-0.49587zM8,9c-0.36064,-0.0051 -0.69608,0.18438 -0.87789,0.49587c-0.18181,0.3115 -0.18181,0.69676 0,1.00825c0.18181,0.3115 0.51725,0.50097 0.87789,0.49587h34c0.36064,0.0051 0.69608,-0.18438 0.87789,-0.49587c0.18181,-0.3115 0.18181,-0.69676 0,-1.00825c-0.18181,-0.3115 -0.51725,-0.50097 -0.87789,-0.49587zM3,13c-0.553,0 -1,0.448 -1,1v30c0,0.552 0.447,1 1,1h44c0.553,0 1,-0.448 1,-1v-30c0,-0.552 -0.447,-1 -1,-1zM25,20c3,0 2.75,1 6,1c0.641,0 1,0.25 1,1v3c0,1 -1,1 -1,1c-3.25,0 -3.25006,-1 -4.53906,-1c-0.404,0 -0.46094,0.34216 -0.46094,1.03516v7.96484c0,1.352 -0.246,4 -4,4c-3.754,0 -4,-1.799 -4,-3c0,-1.783 1.146,-3 4,-3c2,0 2,-0.884 2,-2v-9c0,-0.531 0.195,-1 1,-1z"></path></g></g></svg>